<?xml version="1.0" ?><svg style="enable-background:new 0 0 48 48;" version="1.1" viewBox="0 0 48 48" xml:space="preserve" xmlns="http://www.w3.org/2000/svg" xmlns:xlink="http://www.w3.org/1999/xlink"><g id="Icons"><g><path d="M15.86765,28.76481h-2.98c-0.94,0-1.7-0.76-1.7-1.7v-10.85c0-0.95,0.76-1.71,1.7-1.71h17.53    c0.94,0,1.71,0.76,1.71,1.71v0.74" style="fill:#0097D3;"/><path d="M33.99206,31.33011l2.8203,2.16508v-3.98v-0.66v-10.19c0-0.95-0.77-1.71-1.71-1.71h-17.53    c-0.93888,0-1.7,0.76112-1.7,1.7v10.86c0,0.93888,0.76112,1.7,1.7,1.7h16.08127    C33.77601,31.21519,33.89498,31.25558,33.99206,31.33011z" style="fill:#F4F4F4;"/><path d="    M33.99206,31.33011l2.8203,2.16508v-3.98v-0.66v-10.19c0-0.95-0.77-1.71-1.71-1.71h-17.53c-0.93888,0-1.7,0.76112-1.7,1.7v10.86    c0,0.93888,0.76112,1.7,1.7,1.7h16.08127C33.77601,31.21519,33.89498,31.25558,33.99206,31.33011z" style="fill:none;stroke:#303030;stroke-width:0.7;stroke-linecap:round;stroke-linejoin:round;stroke-miterlimit:10;"/><path d="    M15.86765,28.76481h-2.98c-0.94,0-1.7-0.76-1.7-1.7v-10.85c0-0.95,0.76-1.71,1.7-1.71h17.53c0.94,0,1.71,0.76,1.71,1.71v0.74" style="fill:none;stroke:#303030;stroke-width:0.7;stroke-linecap:round;stroke-linejoin:round;stroke-miterlimit:10;"/><line style="fill:none;stroke:#303030;stroke-width:0.7;stroke-linecap:round;stroke-linejoin:round;stroke-miterlimit:10;" x1="21.65329" x2="31.03142" y1="22.76986" y2="22.76986"/><line style="fill:none;stroke:#303030;stroke-width:0.7;stroke-linecap:round;stroke-linejoin:round;stroke-miterlimit:10;" x1="23.28736" x2="29.39735" y1="25.61172" y2="25.61172"/></g></g></svg>